<svg width="24" height="24" viewBox="0 0 24 24" fill="none" xmlns="http://www.w3.org/2000/svg">
<path d="M21.7113 6.9829C21.52 5.92727 20.6088 5.15852 19.5513 4.91852C17.9688 4.5829 15.04 4.3429 11.8713 4.3429C8.70441 4.3429 5.72879 4.5829 4.14441 4.91852C3.08879 5.15852 2.17566 5.87852 1.98441 6.9829C1.79129 8.1829 1.60004 9.8629 1.60004 12.0229C1.60004 14.1829 1.79129 15.8629 2.03129 17.0629C2.22441 18.1185 3.13566 18.8873 4.19129 19.1273C5.87129 19.4629 8.75129 19.7029 11.92 19.7029C15.0888 19.7029 17.9688 19.4629 19.6488 19.1273C20.7044 18.8873 21.6157 18.1673 21.8088 17.0629C22 15.8629 22.24 14.1341 22.2888 12.0229C22.1913 9.8629 21.9513 8.1829 21.7113 6.9829ZM9.28004 15.3829V8.6629L15.1357 12.0229L9.28004 15.3829Z" fill="#00B285"/>
</svg>
