<svg width="24" height="24" viewBox="0 0 24 24" fill="none" xmlns="http://www.w3.org/2000/svg">
<path d="M15.073 2H8.93756C3.33337 2 2.00006 3.33331 2.00006 8.92706V15.0625C2.00006 20.6666 3.323 22 8.92712 22H15.0626C20.6667 22 22.0001 20.6771 22.0001 15.0729V8.9375C22.0001 3.33331 20.6771 2 15.073 2ZM18.1459 16.2708H16.6876C16.1355 16.2708 15.9688 15.8229 14.9792 14.8333C14.1146 14 13.7501 13.8958 13.5313 13.8958C13.2292 13.8958 13.1459 13.9791 13.1459 14.3958V15.7083C13.1459 16.0625 13.0313 16.2708 12.1042 16.2708C11.2046 16.2104 10.3323 15.9371 9.55894 15.4735C8.78563 15.0098 8.13352 14.3691 7.65631 13.6041C6.52342 12.194 5.73517 10.5391 5.35425 8.77081C5.35425 8.55206 5.43756 8.35413 5.85425 8.35413H7.31256C7.68756 8.35413 7.823 8.52081 7.96881 8.90625C8.67712 10.9896 9.8855 12.8021 10.3751 12.8021C10.5626 12.8021 10.6459 12.7188 10.6459 12.25V10.1041C10.5834 9.125 10.0626 9.04163 10.0626 8.6875C10.0694 8.59407 10.1124 8.50699 10.1824 8.44474C10.2524 8.3825 10.344 8.35 10.4376 8.35413H12.7292C13.0417 8.35413 13.1459 8.51038 13.1459 8.88538V11.7812C13.1459 12.0938 13.2813 12.1979 13.3751 12.1979C13.5626 12.1979 13.7084 12.0938 14.0521 11.75C14.7908 10.8492 15.3944 9.84559 15.8438 8.77081C15.8897 8.64149 15.9766 8.53074 16.0914 8.4555C16.2061 8.38025 16.3424 8.34465 16.4792 8.35413H17.9376C18.3751 8.35413 18.4688 8.57288 18.3751 8.88538C17.8444 10.0737 17.1879 11.2017 16.4167 12.25C16.2605 12.4896 16.198 12.6146 16.4167 12.8958C16.5626 13.1146 17.073 13.5416 17.4167 13.9479C17.9167 14.4466 18.3319 15.0237 18.6459 15.6562C18.7709 16.0625 18.5626 16.2708 18.1459 16.2708Z" fill="#00B285"/>
</svg>
